<svg xmlns="http://www.w3.org/2000/svg" width="22" height="21" fill="none"><path d="M5 8h4" stroke="#5765AE" stroke-width="1.5" stroke-linecap="round" stroke-linejoin="round"/><path d="M19.833 9h-2.602C15.446 9 14 10.343 14 12s1.447 3 3.23 3h2.603c.084 0 .125 0 .16-.002.54-.033.97-.432 1.005-.933.002-.032.002-.071.002-.148v-3.834c0-.077 0-.116-.002-.148-.036-.501-.465-.9-1.005-.933C19.959 9 19.918 9 19.834 9Z" stroke="#5765AE" stroke-width="1.5"/><path d="M19.965 9c-.078-1.872-.328-3.02-1.137-3.828C17.657 4 15.771 4 12 4H9C5.229 4 3.343 4 2.172 5.172 1 6.343 1 8.229 1 12c0 3.771 0 5.657 1.172 6.828C3.343 20 5.229 20 9 20h3c3.771 0 5.657 0 6.828-1.172.809-.808 1.06-1.956 1.137-3.828" stroke="#5765AE" stroke-width="1.5"/><path d="m5 4 3.735-2.477a3.237 3.237 0 0 1 3.53 0L16 4" stroke="#5765AE" stroke-width="1.5" stroke-linecap="round"/><path d="M16.991 12h.01" stroke="#5765AE" stroke-width="2" stroke-linecap="round" stroke-linejoin="round"/></svg>