<svg xmlns="http://www.w3.org/2000/svg" width="22" height="22" fill="none"><path d="m8 14 6-6" stroke="#5765AE" stroke-width="1.5" stroke-linecap="round"/><path d="M14 13.5a.5.5 0 1 1-1 0 .5.5 0 0 1 1 0Zm-5-5a.5.5 0 1 1-1 0 .5.5 0 0 1 1 0Z" fill="#7A64E2" stroke="#5765AE"/><path d="M1 11c0-4.714 0-7.071 1.464-8.536C3.93 1 6.286 1 11 1c4.714 0 7.071 0 8.535 1.464C21 3.93 21 6.286 21 11c0 4.714 0 7.071-1.465 8.535C18.072 21 15.714 21 11 21s-7.071 0-8.536-1.465C1 18.072 1 15.714 1 11Z" stroke="#5765AE" stroke-width="1.5"/></svg>