<svg xmlns="http://www.w3.org/2000/svg" width="22" height="22" fill="none"><path d="M1 4.257C1 2.458 2.567 1 4.5 1S8 2.458 8 4.257C8 6.042 6.883 8.125 5.14 8.87a1.638 1.638 0 0 1-1.28 0C2.117 8.125 1 6.042 1 4.257Zm13 12C14 14.458 15.567 13 17.5 13s3.5 1.458 3.5 3.257c0 1.785-1.117 3.868-2.86 4.613a1.638 1.638 0 0 1-1.28 0c-1.743-.745-2.86-2.828-2.86-4.613Z" stroke="#5765AE" stroke-width="1.5"/><path d="M17.5 16.5h.009M4.49 4.5h.01" stroke="#5765AE" stroke-width="2" stroke-linecap="round" stroke-linejoin="round"/><mask id="a" fill="#fff"><path d="M11 3.25a.75.75 0 0 0 0 1.5v-1.5ZM11 18l.53.53a.75.75 0 0 0 0-1.06L11 18Zm-.97-2.03a.75.75 0 1 0-1.06 1.06l1.06-1.06Zm-1.06 3a.75.75 0 1 0 1.06 1.06l-1.06-1.06Zm6.162-15.72H11v1.5h4.132v-1.5ZM11 17.25H6.868v1.5H11v-1.5Zm4.803-10.195L5.392 13.68l.805 1.265L16.608 8.32l-.805-1.265ZM11.53 17.47l-1.5-1.5-1.06 1.06 1.5 1.5 1.06-1.06Zm-1.06 0-1.5 1.5 1.06 1.06 1.5-1.5-1.06-1.06Zm-3.602-.22c-1.25 0-1.726-1.633-.67-2.305l-.806-1.265c-2.321 1.477-1.275 5.07 1.476 5.07v-1.5Zm8.264-12.5c1.25 0 1.726 1.633.671 2.305l.805 1.265c2.322-1.477 1.275-5.07-1.476-5.07v1.5Z"/></mask><path d="M11 3.25a.75.75 0 0 0 0 1.5v-1.5ZM11 18l.53.53a.75.75 0 0 0 0-1.06L11 18Zm-.97-2.03a.75.75 0 1 0-1.06 1.06l1.06-1.06Zm-1.06 3a.75.75 0 1 0 1.06 1.06l-1.06-1.06Zm6.162-15.72H11v1.5h4.132v-1.5ZM11 17.25H6.868v1.5H11v-1.5Zm4.803-10.195L5.392 13.68l.805 1.265L16.608 8.32l-.805-1.265ZM11.53 17.47l-1.5-1.5-1.06 1.06 1.5 1.5 1.06-1.06Zm-1.06 0-1.5 1.5 1.06 1.06 1.5-1.5-1.06-1.06Zm-3.602-.22c-1.25 0-1.726-1.633-.67-2.305l-.806-1.265c-2.321 1.477-1.275 5.07 1.476 5.07v-1.5Zm8.264-12.5c1.25 0 1.726 1.633.671 2.305l.805 1.265c2.322-1.477 1.275-5.07-1.476-5.07v1.5Z" fill="#7A64E2"/><path d="m16.608 8.32-.421.269.843-.537-.422.268Zm-10.41 6.625-.423.269.844-.537-.422.268ZM11.5 4.75v-1.5h-1v1.5h1Zm4.284 3.206.402.632.844-.536-.402-.633-.844.537ZM5.373 14.58l.402.633.844-.537-.403-.633-.843.537Zm3.95 2.803 1.06-1.06-.706-.708-1.06 1.06.706.708Zm1.06 2.293-1.06-1.06-.707.706 1.06 1.06.708-.706Zm5.25-14.926v-1.5h-1v1.5h1Zm-9.264 12.5v1.5h1v-1.5h-1ZM4.97 13.948l.805 1.266.844-.537-.805-1.265-.844.536Zm12.06-5.896-.805-1.266-.844.537.806 1.266.843-.537ZM11 18l-.707-.707-.707.707.707.707L11 18Zm5.608-9.68.537.844-.537-.844Zm-10.41 6.625.536.844-.537-.844Zm3.832 1.025-.707.707.707-.707Zm-1.06 0-.707-.707.707.707Zm0 1.06-.707.707.707-.707Zm0 1.94-.707-.707.707.707Zm0 1.06-.707.707.707-.707Zm1.06 0-.707-.707.707.707Zm.97-2.78h1v-1h-1v1Zm0 1.5v1h1v-1h-1Zm4.803-11.695.537.843-.537-.843ZM5.392 13.68l-.537-.844.537.844Zm5.078 4.85-.707.707.707.708.707-.708-.707-.707Zm0-1.06.707-.707-.707-.708-.707.708.707.707ZM11 2.25A1.75 1.75 0 0 0 9.25 4h2a.25.25 0 0 1-.25.25v-2ZM9.25 4c0 .966.784 1.75 1.75 1.75v-2a.25.25 0 0 1 .25.25h-2Zm1.043 14.707.53.53 1.415-1.414-.53-.53-1.415 1.414Zm1.945.53a1.75 1.75 0 0 0 0-2.474l-1.415 1.414a.25.25 0 0 1 0-.354l1.415 1.414Zm-1.415-2.474-.53.53 1.414 1.414.53-.53-1.414-1.414Zm-.085-1.5a1.75 1.75 0 0 0-2.475 0l1.414 1.414a.25.25 0 0 1-.354 0l1.415-1.414Zm-2.475 0a1.75 1.75 0 0 0 0 2.474l1.414-1.414a.25.25 0 0 1 0 .354l-1.414-1.414Zm0 3a1.75 1.75 0 0 0 0 2.474l1.414-1.414a.25.25 0 0 1 0 .354l-1.414-1.414Zm0 2.474a1.75 1.75 0 0 0 2.475 0l-1.415-1.414a.25.25 0 0 1 .354 0l-1.414 1.414ZM15.132 2.25H11v2h4.132v-2ZM11 5.75h4.132v-2H11v2Zm0 10.5H6.868v2H11v-2Zm-4.132 3.5H11v-2H6.868v2Zm5.132-1v-1.5h-2v1.5h2Zm3.266-12.54L4.855 12.837l1.074 1.688L16.34 7.898l-1.074-1.687Zm-8.532 9.58 10.411-6.626-1.073-1.688L5.66 14.102l1.074 1.687Zm5.504.973-1.5-1.5-1.415 1.414 1.5 1.5 1.415-1.414Zm-3.975.974 1.5 1.5 1.414-1.414-1.5-1.5-1.414 1.414Zm2.914 1.5 1.06-1.06-1.414-1.414-1.06 1.06 1.414 1.414Zm-1.414-2.474-1.5 1.5 1.414 1.414 1.5-1.5-1.414-1.414Zm.975 3.974 1.5-1.5-1.415-1.414-1.5 1.5 1.415 1.414Zm1.5-2.914-1.061-1.06-1.414 1.414 1.06 1.06 1.415-1.414Zm-5.37-1.573c-.084 0-.128-.024-.155-.046a.27.27 0 0 1-.085-.134.268.268 0 0 1 0-.16c.01-.032.035-.075.106-.12L5.66 14.101C3.761 15.31 4.617 18.25 6.868 18.25v-2Zm-2.013-3.414C1.69 14.85 3.116 19.75 6.868 19.75v-2c-1.75 0-2.416-2.286-.94-3.226l-1.073-1.688ZM15.132 5.75c.085 0 .128.024.155.046a.268.268 0 0 1 .085.134.268.268 0 0 1 0 .16c-.01.032-.034.075-.106.12l1.074 1.688c1.899-1.208 1.043-4.148-1.208-4.148v2Zm2.013 3.414C20.31 7.15 18.884 2.25 15.132 2.25v2c1.75 0 2.417 2.286.94 3.226l1.073 1.688Z" fill="#5765AE" mask="url(#a)"/></svg>