<svg xmlns="http://www.w3.org/2000/svg" width="534" height="592" fill="none"><path d="M533.5 189.054v213.2c0 47.745-34.522 87.725-78.816 105.846-36.275 14.84-76.408 36.442-129.841 68.611-31.856 19.177-71.624 19.657-103.839 1.093-55.235-31.831-98.655-54.455-143.042-70.91C33.827 490.532.5 450.942.5 403.957v-211.8c0-42.736 27.442-80.471 66.277-98.44C104.59 76.218 152.57 51.245 222.473 13.29c31.397-17.048 69.504-16.053 100.158 2.306 55.437 33.203 98.706 56.985 147.575 78.865 37.654 16.858 63.294 53.372 63.294 94.593Z" stroke="url(#a)"/><defs><linearGradient id="a" x1="331" y1="656" x2="318.609" y2="33.167" gradientUnits="userSpaceOnUse"><stop stop-color="#EFEDFF"/><stop offset="1" stop-color="#644DD1"/></linearGradient></defs></svg>