<svg xmlns="http://www.w3.org/2000/svg" width="428" height="462" fill="none"><path d="M427.5 161.011v136.058c0 47.844-34.747 88.009-78.495 107.688-22.765 10.24-48.001 23.772-78.892 41.862-31.696 18.561-70.826 19.003-102.86 1.036-33.477-18.777-61.662-33.235-89.425-44.515C34.105 385.375.5 345.845.5 298.754V164.09c0-42.896 27.611-80.891 66.41-99.32 26.266-12.477 58.61-29.136 101.873-52.21 31.134-16.606 68.669-15.593 99.137 2.216 35.255 20.607 64.671 36.522 96.035 50.992 37.625 17.358 63.545 53.85 63.545 95.243Z" stroke="url(#a)"/><defs><linearGradient id="a" x1="323.5" y1="418.5" x2="76.5" y2="63.5" gradientUnits="userSpaceOnUse"><stop stop-color="#6779D8"/><stop offset="1" stop-color="#EFEEF7"/></linearGradient></defs></svg>