<svg width="24" height="24" fill="none" xmlns="http://www.w3.org/2000/svg"><path d="M12 2C6.477 2 2 6.477 2 12s4.477 10 10 10 10-4.477 10-10S17.523 2 12 2Zm3.846 11.282s.884.873 1.102 1.278a.08.08 0 0 1 .011.021c.089.148.11.265.066.351-.073.144-.323.215-.408.221h-1.563c-.108 0-.335-.028-.61-.218-.212-.148-.42-.39-.623-.627-.303-.352-.566-.656-.83-.656a.31.31 0 0 0-.1.016c-.2.064-.456.35-.456 1.11 0 .238-.187.374-.32.374H11.4c-.244 0-1.514-.085-2.639-1.272-1.377-1.453-2.616-4.368-2.627-4.395-.078-.188.084-.29.26-.29h1.578c.21 0 .279.129.327.242.056.133.262.659.601 1.25.549.965.885 1.357 1.155 1.357.05 0 .1-.014.145-.038.352-.196.287-1.45.27-1.711 0-.05 0-.562-.18-.807-.13-.179-.35-.246-.483-.271a.573.573 0 0 1 .208-.176c.241-.121.677-.139 1.109-.139h.24c.47.006.59.037.76.08.344.082.351.303.32 1.063-.009.215-.018.46-.018.747l-.003.2c-.01.386-.023.825.25 1.005a.208.208 0 0 0 .119.034c.095 0 .38 0 1.153-1.326.237-.427.444-.87.62-1.327.015-.027.061-.11.115-.143a.306.306 0 0 1 .13-.03h1.855c.202 0 .34.03.366.109.046.123-.008.502-.855 1.649l-.378.498c-.768 1.007-.768 1.058.048 1.821Z" fill="#5765AE"/></svg>