<svg xmlns="http://www.w3.org/2000/svg" width="387" height="331" fill="none"><path d="M91.828 331a6.001 6.001 0 0 1-6-6V63.27a6 6 0 0 1 12 0V325a5.999 5.999 0 0 1-6 6Z" fill="#828DC3"/><path d="M358.89 331H28a28 28 0 0 1-28-28V28A28 28 0 0 1 28 0h330.89a28 28 0 0 1 28 28v275a28 28 0 0 1-28 28ZM28 12.08a16 16 0 0 0-16 16v275a16.002 16.002 0 0 0 16 16h330.89c4.243 0 8.313-1.686 11.314-4.686 3-3.001 4.686-7.071 4.686-11.314v-275a16.002 16.002 0 0 0-16-16H28Z" fill="#828DC3"/><path d="M380.889 69.27H6.039a6 6 0 1 1 0-12h374.85a6.003 6.003 0 0 1 6 6 6 6 0 0 1-6 6Z" fill="#828DC3"/><path d="M193.441 331a6 6 0 0 1-6-6V63.27a6.001 6.001 0 0 1 10.243-4.243 6 6 0 0 1 1.757 4.242V325a6 6 0 0 1-6 6Zm101.618 0a6 6 0 0 1-6-6V63.27a6 6 0 1 1 12 0V325a6 6 0 0 1-6 6Z" fill="#828DC3"/><path d="M380.889 141.789H6.039a6 6 0 1 1 0-12h374.85c1.591 0 3.117.632 4.243 1.757a6.003 6.003 0 0 1 0 8.486 6.003 6.003 0 0 1-4.243 1.757Zm0 107.231H6.039a6.002 6.002 0 0 1-4.243-10.243 6 6 0 0 1 4.243-1.757h374.85a6 6 0 1 1 0 12Z" fill="#828DC3"/></svg>