<?xml version="1.0" encoding="UTF-8"?> <svg xmlns="http://www.w3.org/2000/svg" width="22" height="22" viewBox="0 0 22 22" fill="none"><path d="M8 14L14 8" stroke="#5765AE" stroke-width="1.5" stroke-linecap="round"></path><path d="M14 13.5C14 13.7762 13.7762 14 13.5 14C13.2238 14 13 13.7762 13 13.5C13 13.2238 13.2238 13 13.5 13C13.7762 13 14 13.2238 14 13.5Z" fill="#7A64E2" stroke="#5765AE"></path><path d="M9 8.5C9 8.77616 8.77616 9 8.5 9C8.22386 9 8 8.77615 8 8.5C8 8.22386 8.22386 8 8.5 8C8.77615 8 9 8.22386 9 8.5Z" fill="#7A64E2" stroke="#5765AE"></path><path d="M1 11C1 6.28595 1 3.92893 2.46447 2.46447C3.92893 1 6.28595 1 11 1C15.714 1 18.0711 1 19.5355 2.46447C21 3.92893 21 6.28595 21 11C21 15.714 21 18.0711 19.5355 19.5355C18.0711 21 15.714 21 11 21C6.28595 21 3.92893 21 2.46447 19.5355C1 18.0711 1 15.714 1 11Z" stroke="#5765AE" stroke-width="1.5"></path></svg> 