<?xml version="1.0" encoding="UTF-8"?> <svg xmlns="http://www.w3.org/2000/svg" width="22" height="21" viewBox="0 0 22 21" fill="none"><path d="M5 8H9" stroke="#5765AE" stroke-width="1.5" stroke-linecap="round" stroke-linejoin="round"></path><path d="M19.8333 9H17.2308C15.4465 9 14 10.3431 14 12C14 13.6569 15.4465 15 17.2308 15H19.8333C19.9167 15 19.9583 15 19.9935 14.9979C20.5328 14.965 20.9623 14.5662 20.9977 14.0654C21 14.0327 21 13.994 21 13.9167V10.0833C21 10.006 21 9.9673 20.9977 9.9346C20.9623 9.4338 20.5328 9.035 19.9935 9.0021C19.9583 9 19.9167 9 19.8333 9Z" stroke="#5765AE" stroke-width="1.5"></path><path d="M19.965 9C19.8873 7.1277 19.6366 5.97975 18.8284 5.17157C17.6569 4 15.7712 4 12 4H9C5.22876 4 3.34315 4 2.17157 5.17157C1 6.34315 1 8.2288 1 12C1 15.7712 1 17.6569 2.17157 18.8284C3.34315 20 5.22876 20 9 20H12C15.7712 20 17.6569 20 18.8284 18.8284C19.6366 18.0203 19.8873 16.8723 19.965 15" stroke="#5765AE" stroke-width="1.5"></path><path d="M5 4L8.73549 1.52313C9.7874 0.825622 11.2126 0.825622 12.2645 1.52313L16 4" stroke="#5765AE" stroke-width="1.5" stroke-linecap="round"></path><path d="M16.9912 12H17.0002" stroke="#5765AE" stroke-width="2" stroke-linecap="round" stroke-linejoin="round"></path></svg> 