<?xml version="1.0" encoding="UTF-8"?> <svg xmlns="http://www.w3.org/2000/svg" width="22" height="22" viewBox="0 0 22 22" fill="none"><path d="M1 4.25732C1 2.45835 2.567 1 4.5 1C6.433 1 8 2.45835 8 4.25732C8 6.04219 6.88292 8.12496 5.14003 8.86978C4.73374 9.0434 4.26626 9.0434 3.85997 8.86978C2.11708 8.12496 1 6.04219 1 4.25732Z" stroke="#5765AE" stroke-width="1.5"></path><path d="M14 16.2573C14 14.4584 15.567 13 17.5 13C19.433 13 21 14.4584 21 16.2573C21 18.0422 19.8829 20.125 18.14 20.8698C17.7337 21.0434 17.2663 21.0434 16.86 20.8698C15.1171 20.125 14 18.0422 14 16.2573Z" stroke="#5765AE" stroke-width="1.5"></path><path d="M17.5 16.5H17.509" stroke="#5765AE" stroke-width="2" stroke-linecap="round" stroke-linejoin="round"></path><path d="M4.49072 4.5H4.49972" stroke="#5765AE" stroke-width="2" stroke-linecap="round" stroke-linejoin="round"></path><mask id="path-5-inside-1_596_38" fill="white"><path d="M11.0001 3.25C10.5859 3.25 10.2501 3.58579 10.2501 4C10.2501 4.41421 10.5859 4.75 11.0001 4.75V3.25ZM11.0001 18L11.5304 18.5303C11.8233 18.2374 11.8233 17.7626 11.5304 17.4697L11.0001 18ZM10.0304 15.9697C9.73758 15.6768 9.26268 15.6768 8.96977 15.9697C8.67687 16.2626 8.67687 16.7374 8.96977 17.0303L10.0304 15.9697ZM8.96977 18.9697C8.67687 19.2626 8.67687 19.7374 8.96977 20.0303C9.26268 20.3232 9.73758 20.3232 10.0304 20.0303L8.96977 18.9697ZM15.132 3.25H11.0001V4.75H15.132V3.25ZM11.0001 17.25H6.86821V18.75H11.0001V17.25ZM15.8031 7.05458L5.39181 13.6799L6.19713 14.9454L16.6084 8.32007L15.8031 7.05458ZM11.5304 17.4697L10.0304 15.9697L8.96977 17.0303L10.4698 18.5303L11.5304 17.4697ZM10.4698 17.4697L8.96977 18.9697L10.0304 20.0303L11.5304 18.5303L10.4698 17.4697ZM6.86821 17.25C5.61766 17.25 5.14207 15.6168 6.19713 14.9454L5.39181 13.6799C3.07071 15.157 4.11697 18.75 6.86821 18.75V17.25ZM15.132 4.75C16.3826 4.75 16.8581 6.38318 15.8031 7.05458L16.6084 8.32007C18.9295 6.843 17.8832 3.25 15.132 3.25V4.75Z"></path></mask><path d="M11.0001 3.25C10.5859 3.25 10.2501 3.58579 10.2501 4C10.2501 4.41421 10.5859 4.75 11.0001 4.75V3.25ZM11.0001 18L11.5304 18.5303C11.8233 18.2374 11.8233 17.7626 11.5304 17.4697L11.0001 18ZM10.0304 15.9697C9.73758 15.6768 9.26268 15.6768 8.96977 15.9697C8.67687 16.2626 8.67687 16.7374 8.96977 17.0303L10.0304 15.9697ZM8.96977 18.9697C8.67687 19.2626 8.67687 19.7374 8.96977 20.0303C9.26268 20.3232 9.73758 20.3232 10.0304 20.0303L8.96977 18.9697ZM15.132 3.25H11.0001V4.75H15.132V3.25ZM11.0001 17.25H6.86821V18.75H11.0001V17.25ZM15.8031 7.05458L5.39181 13.6799L6.19713 14.9454L16.6084 8.32007L15.8031 7.05458ZM11.5304 17.4697L10.0304 15.9697L8.96977 17.0303L10.4698 18.5303L11.5304 17.4697ZM10.4698 17.4697L8.96977 18.9697L10.0304 20.0303L11.5304 18.5303L10.4698 17.4697ZM6.86821 17.25C5.61766 17.25 5.14207 15.6168 6.19713 14.9454L5.39181 13.6799C3.07071 15.157 4.11697 18.75 6.86821 18.75V17.25ZM15.132 4.75C16.3826 4.75 16.8581 6.38318 15.8031 7.05458L16.6084 8.32007C18.9295 6.843 17.8832 3.25 15.132 3.25V4.75Z" fill="#7A64E2"></path><path d="M16.6084 8.32007L16.1866 8.58851L17.0302 8.05166L16.6084 8.32007ZM6.19713 14.9454L5.77531 15.2139L6.61896 14.677L6.19713 14.9454ZM11.5001 4.75V3.25H10.5001V4.75H11.5001ZM15.7839 7.95573L16.1865 8.58848L17.0302 8.05166L16.6276 7.41891L15.7839 7.95573ZM5.37265 14.5812L5.77531 15.2139L6.61895 14.6769L6.21629 14.0442L5.37265 14.5812ZM9.32333 17.3839L10.3839 16.3233L9.67683 15.6161L8.61622 16.6767L9.32333 17.3839ZM10.3839 19.6767L9.32333 18.6161L8.61622 19.3233L9.67683 20.3839L10.3839 19.6767ZM15.632 4.75V3.25H14.632V4.75H15.632ZM6.36821 17.25V18.75H7.36821V17.25H6.36821ZM4.96998 13.9483L5.7753 15.2138L6.61896 14.677L5.81364 13.4115L4.96998 13.9483ZM17.0302 8.05164L16.2249 6.78614L15.3813 7.32301L16.1866 8.58851L17.0302 8.05164ZM11.0001 18L10.293 17.2929L9.58587 18L10.293 18.7071L11.0001 18ZM16.6084 8.32007L17.1453 9.16373L17.1453 9.16373L16.6084 8.32007ZM6.19713 14.9454L6.73401 15.7891L6.73401 15.7891L6.19713 14.9454ZM10.0304 15.9697L9.32316 16.6767L9.32328 16.6768L10.0304 15.9697ZM8.96977 15.9697L8.26268 15.2626L8.26267 15.2626L8.96977 15.9697ZM8.96977 17.0303L8.26267 17.7374L8.26267 17.7374L8.96977 17.0303ZM8.96977 18.9697L8.26267 18.2626L8.26267 18.2626L8.96977 18.9697ZM8.96977 20.0303L8.26267 20.7374L8.26268 20.7374L8.96977 20.0303ZM10.0304 20.0303L9.32328 19.3232L9.32316 19.3233L10.0304 20.0303ZM11.0001 17.25H12.0001V16.25H11.0001V17.25ZM11.0001 18.75V19.75H12.0001V18.75H11.0001ZM15.8031 7.05458L16.34 7.89824L16.34 7.89823L15.8031 7.05458ZM5.39181 13.6799L4.85494 12.8362L4.85493 12.8362L5.39181 13.6799ZM10.4698 18.5303L9.76268 19.2374L10.4698 19.9445L11.1769 19.2374L10.4698 18.5303ZM10.4698 17.4697L11.1769 16.7626L10.4698 16.0555L9.76268 16.7626L10.4698 17.4697ZM11.0001 2.25C10.0336 2.25 9.25008 3.0335 9.25008 4H11.2501C11.2501 4.13808 11.1382 4.25 11.0001 4.25V2.25ZM9.25008 4C9.25008 4.9665 10.0336 5.75 11.0001 5.75V3.75C11.1382 3.75 11.2501 3.86192 11.2501 4H9.25008ZM10.293 18.7071L10.8233 19.2374L12.2375 17.8232L11.7072 17.2929L10.293 18.7071ZM12.2375 19.2374C12.9209 18.554 12.9209 17.446 12.2375 16.7626L10.8233 18.1768C10.7257 18.0792 10.7257 17.9208 10.8233 17.8232L12.2375 19.2374ZM10.8233 16.7626L10.293 17.2929L11.7072 18.7071L12.2375 18.1768L10.8233 16.7626ZM10.7376 15.2627C10.0542 14.5791 8.94604 14.5792 8.26268 15.2626L9.67687 16.6768C9.57933 16.7744 9.42098 16.7745 9.32316 16.6767L10.7376 15.2627ZM8.26267 15.2626C7.57924 15.946 7.57924 17.054 8.26267 17.7374L9.67688 16.3232C9.7745 16.4208 9.7745 16.5792 9.67688 16.6768L8.26267 15.2626ZM8.26267 18.2626C7.57924 18.946 7.57924 20.054 8.26267 20.7374L9.67688 19.3232C9.7745 19.4208 9.7745 19.5792 9.67688 19.6768L8.26267 18.2626ZM8.26268 20.7374C8.94604 21.4208 10.0542 21.4209 10.7376 20.7373L9.32316 19.3233C9.42098 19.2255 9.57933 19.2256 9.67687 19.3232L8.26268 20.7374ZM15.132 2.25H11.0001V4.25H15.132V2.25ZM11.0001 5.75H15.132V3.75H11.0001V5.75ZM11.0001 16.25H6.86821V18.25H11.0001V16.25ZM6.86821 19.75H11.0001V17.75H6.86821V19.75ZM12.0001 18.75V17.25H10.0001V18.75H12.0001ZM15.2662 6.21092L4.85494 12.8362L5.92869 14.5236L16.34 7.89824L15.2662 6.21092ZM6.73401 15.7891L17.1453 9.16373L16.0715 7.47641L5.66026 14.1017L6.73401 15.7891ZM12.2375 16.7626L10.7375 15.2626L9.32328 16.6768L10.8233 18.1768L12.2375 16.7626ZM8.26267 17.7374L9.76268 19.2374L11.1769 17.8232L9.67688 16.3232L8.26267 17.7374ZM11.1769 19.2374L12.2375 18.1768L10.8233 16.7626L9.76268 17.8232L11.1769 19.2374ZM9.76268 16.7626L8.26267 18.2626L9.67688 19.6768L11.1769 18.1768L9.76268 16.7626ZM10.7375 20.7374L12.2375 19.2374L10.8233 17.8232L9.32328 19.3232L10.7375 20.7374ZM12.2375 17.8232L11.1769 16.7626L9.76268 18.1768L10.8233 19.2374L12.2375 17.8232ZM6.86821 16.25C6.7836 16.25 6.74 16.2258 6.71312 16.2043C6.67944 16.1772 6.64614 16.1315 6.62819 16.0699C6.61024 16.0082 6.61379 15.9518 6.62771 15.9109C6.63881 15.8783 6.66262 15.8345 6.73401 15.7891L5.66026 14.1017C3.76118 15.3102 4.6172 18.25 6.86821 18.25V16.25ZM4.85493 12.8362C1.68984 14.8504 3.11648 19.75 6.86821 19.75V17.75C5.11746 17.75 4.45159 15.4636 5.9287 14.5236L4.85493 12.8362ZM15.132 5.75C15.2166 5.75 15.2602 5.77418 15.2871 5.79573C15.3208 5.82274 15.3541 5.86844 15.372 5.93009C15.39 5.99173 15.3864 6.04817 15.3725 6.08906C15.3614 6.1217 15.3376 6.1655 15.2662 6.21093L16.34 7.89823C18.2389 6.68978 17.3832 3.75 15.132 3.75V5.75ZM17.1453 9.16373C20.3104 7.14954 18.8836 2.25 15.132 2.25V4.25C16.8827 4.25 17.5486 6.53646 16.0715 7.47641L17.1453 9.16373Z" fill="#5765AE" mask="url(#path-5-inside-1_596_38)"></path></svg> 