<?xml version="1.0" encoding="UTF-8"?> <svg xmlns="http://www.w3.org/2000/svg" width="534" height="592" viewBox="0 0 534 592" fill="none"><path d="M533.5 189.054V402.254C533.5 449.999 498.978 489.979 454.684 508.1C418.409 522.94 378.276 544.542 324.843 576.711C292.987 595.888 253.219 596.368 221.004 577.804C165.769 545.973 122.349 523.349 77.9621 506.894C33.827 490.532 0.5 450.942 0.5 403.957V192.157C0.5 149.421 27.9419 111.686 66.7766 93.7164C104.59 76.2194 152.57 51.2457 222.473 13.2897C253.87 -3.75836 291.977 -2.76328 322.631 15.596C378.068 48.7986 421.337 72.5811 470.206 94.4612C507.86 111.319 533.5 147.833 533.5 189.054Z" stroke="url(#paint0_linear_702_11)"></path><defs><linearGradient id="paint0_linear_702_11" x1="331" y1="656" x2="318.609" y2="33.1669" gradientUnits="userSpaceOnUse"><stop stop-color="#EFEDFF"></stop><stop offset="1" stop-color="#644DD1"></stop></linearGradient></defs></svg> 