<?xml version="1.0" encoding="UTF-8"?> <svg xmlns="http://www.w3.org/2000/svg" width="428" height="462" viewBox="0 0 428 462" fill="none"><path d="M427.5 161.011V297.069C427.5 344.913 392.753 385.078 349.005 404.757C326.24 414.997 301.004 428.529 270.113 446.619C238.417 465.18 199.287 465.622 167.253 447.655C133.776 428.878 105.591 414.42 77.8282 403.14C34.105 385.375 0.5 345.845 0.5 298.754V164.09C0.5 121.194 28.1115 83.1988 66.9101 64.7693C93.1758 52.2929 125.52 35.6342 168.783 12.5595C199.917 -4.04613 237.452 -3.03323 267.92 14.7759C303.175 35.3827 332.591 51.2977 363.955 65.7675C401.58 83.1263 427.5 119.618 427.5 161.011Z" stroke="url(#paint0_linear_702_5)"></path><defs><linearGradient id="paint0_linear_702_5" x1="323.5" y1="418.5" x2="76.5" y2="63.5" gradientUnits="userSpaceOnUse"><stop stop-color="#6779D8"></stop><stop offset="1" stop-color="#EFEEF7"></stop></linearGradient></defs></svg> 