<?xml version="1.0" encoding="UTF-8"?> <svg xmlns="http://www.w3.org/2000/svg" width="21" height="22" viewBox="0 0 21 22" fill="none"><path d="M16.18 7.03933L16.6435 6.57589C17.4113 5.80804 18.6563 5.80804 19.4241 6.57589C20.192 7.34374 20.192 8.58868 19.4241 9.3565L18.9607 9.82M16.18 7.03933C16.18 7.03933 16.238 8.02414 17.1069 8.89309C17.9759 9.762 18.9607 9.82 18.9607 9.82M16.18 7.03933L11.9194 11.2999C11.6308 11.5885 11.4865 11.7328 11.3624 11.8919C11.2161 12.0796 11.0906 12.2827 10.9882 12.4975C10.9014 12.6797 10.8368 12.8732 10.7078 13.2604L10.2946 14.5L10.1609 14.901M18.9607 9.82L14.7001 14.0806C14.4115 14.3692 14.2672 14.5135 14.1081 14.6376C13.9204 14.7839 13.7173 14.9094 13.5025 15.0118C13.3203 15.0986 13.1268 15.1632 12.7396 15.2922L11.5 15.7054L11.099 15.8391M10.1609 14.901L10.0272 15.3021C9.96372 15.4926 10.0133 15.7027 10.1553 15.8447C10.2973 15.9867 10.5074 16.0363 10.6979 15.9728L11.099 15.8391M10.1609 14.901L11.099 15.8391" stroke="#5765AE" stroke-width="1.5"></path><path d="M6 12H8.5" stroke="#5765AE" stroke-width="1.5" stroke-linecap="round"></path><path d="M6 8H12.5" stroke="#5765AE" stroke-width="1.5" stroke-linecap="round"></path><path d="M6 16H7.5" stroke="#5765AE" stroke-width="1.5" stroke-linecap="round"></path><path d="M17.8284 2.17157C16.6569 1 14.7712 1 11 1H9C5.22876 1 3.34315 1 2.17157 2.17157C1 3.34315 1 5.22876 1 9V13C1 16.7712 1 18.6569 2.17157 19.8284C3.34315 21 5.22876 21 9 21H11C14.7712 21 16.6569 21 17.8284 19.8284C18.7715 18.8853 18.9554 17.4796 18.9913 15" stroke="#5765AE" stroke-width="1.5" stroke-linecap="round"></path></svg> 