<?xml version="1.0" encoding="UTF-8"?> <svg xmlns="http://www.w3.org/2000/svg" width="22" height="20" viewBox="0 0 22 20" fill="none"><path d="M21 9C21.0185 9.7271 21 10.0542 21 11C21 14.7712 21 16.6569 19.8284 17.8284C18.6569 19 16.7712 19 13 19H9C5.22876 19 3.34315 19 2.17157 17.8284C1 16.6569 1 14.7712 1 11C1 7.22876 1 5.34315 2.17157 4.17157C3.34315 3 5.22876 3 9 3H12" stroke="#5765AE" stroke-width="1.5" stroke-linecap="round"></path><path d="M5 7L7.1589 8.79908C8.99553 10.3296 9.9139 11.0949 11 11.0949C12.0861 11.0949 13.0045 10.3296 14.8411 8.79908" stroke="#5765AE" stroke-width="1.5" stroke-linecap="round"></path><path d="M18 7C19.6569 7 21 5.65685 21 4C21 2.34315 19.6569 1 18 1C16.3431 1 15 2.34315 15 4C15 5.65685 16.3431 7 18 7Z" stroke="#5765AE" stroke-width="1.5"></path></svg> 