<?xml version="1.0" encoding="UTF-8"?> <svg xmlns="http://www.w3.org/2000/svg" width="18" height="22" viewBox="0 0 18 22" fill="none"><path d="M1 9.1433C1 4.64588 4.58172 1 9 1C13.4183 1 17 4.64588 17 9.1433C17 13.6055 14.4467 18.8124 10.4629 20.6744C9.5343 21.1085 8.4657 21.1085 7.5371 20.6744C3.55332 18.8124 1 13.6055 1 9.1433Z" stroke="#828DC3" stroke-width="1.5"></path><path d="M9 12C10.6569 12 12 10.6569 12 9C12 7.34315 10.6569 6 9 6C7.34315 6 6 7.34315 6 9C6 10.6569 7.34315 12 9 12Z" stroke="#828DC3" stroke-width="1.5"></path></svg> 