<?xml version="1.0" encoding="UTF-8"?> <svg xmlns="http://www.w3.org/2000/svg" width="19" height="11" viewBox="0 0 19 11" fill="none"><path fill-rule="evenodd" clip-rule="evenodd" d="M18.0976 0.743249C18.2257 0.315175 18.0976 0 17.484 0H15.4582C14.9427 0 14.705 0.272054 14.5761 0.572333C14.5761 0.572333 13.5458 3.07805 12.0864 4.70568C11.6141 5.17765 11.3995 5.3274 11.1418 5.3274C11.0129 5.3274 10.8192 5.17765 10.8192 4.7488V0.743249C10.8192 0.228933 10.6772 0 10.2481 0H7.0623C6.74048 0 6.54677 0.238341 6.54677 0.464923C6.54677 0.951798 7.27684 1.0647 7.3517 2.43516V5.41286C7.3517 6.06595 7.23363 6.18433 6.97586 6.18433C6.289 6.18433 4.61816 3.66685 3.62646 0.78637C3.43429 0.225797 3.23981 0 2.72197 0H0.694576C0.115763 0 0 0.272054 0 0.572333C0 1.10703 0.686859 3.76329 3.19891 7.27647C4.87361 9.67556 7.23131 10.9763 9.37909 10.9763C10.6671 10.9763 10.8261 10.6877 10.8261 10.1899V8.37645C10.8261 7.79863 10.9481 7.68338 11.3563 7.68338C11.6573 7.68338 12.1721 7.83391 13.3745 8.99033C14.7482 10.3616 14.9743 10.9763 15.7476 10.9763H17.7734C18.3522 10.9763 18.6424 10.6877 18.4757 10.117C18.2921 9.54934 17.6361 8.72533 16.7663 7.74766C16.294 7.19101 15.5855 6.59124 15.3702 6.29096C15.07 5.90601 15.1557 5.73431 15.3702 5.39169C15.3702 5.39169 17.8398 1.92163 18.0968 0.743249" fill="#4E7DB2"></path></svg> 