<svg width="24" height="24" viewBox="0 0 24 24" fill="none" xmlns="http://www.w3.org/2000/svg">
<path d="M12 2C6.47708 2 2 6.47708 2 12C2 17.5229 6.47708 22 12 22C17.5229 22 22 17.5229 22 12C22 6.47708 17.5229 2 12 2ZM15.8458 13.2823C15.8458 13.2823 16.7302 14.1552 16.9479 14.5604C16.9542 14.5694 16.958 14.5764 16.9594 14.5812C17.0476 14.7292 17.0694 14.8462 17.025 14.9323C16.9521 15.076 16.7021 15.1469 16.6167 15.1531H15.0542C14.9458 15.1531 14.7187 15.125 14.4437 14.9354C14.2323 14.7875 14.024 14.5448 13.8208 14.3083C13.5177 13.9562 13.2552 13.6521 12.9906 13.6521C12.957 13.6519 12.9236 13.6572 12.8917 13.6677C12.6917 13.7323 12.4354 14.0177 12.4354 14.7781C12.4354 15.0156 12.2479 15.1521 12.1156 15.1521H11.4C11.1562 15.1521 9.88646 15.0667 8.76146 13.8802C7.38437 12.4271 6.14479 9.5125 6.13437 9.48542C6.05625 9.29687 6.21771 9.19583 6.39375 9.19583H7.97187C8.18229 9.19583 8.25104 9.32396 8.29896 9.4375C8.35521 9.56979 8.56146 10.0958 8.9 10.6875C9.44896 11.6521 9.78542 12.0437 10.0552 12.0437C10.1058 12.0432 10.1555 12.0303 10.2 12.0062C10.5521 11.8104 10.4865 10.5552 10.4708 10.2948C10.4708 10.2458 10.4698 9.73333 10.2896 9.4875C10.1604 9.30937 9.94062 9.24167 9.80729 9.21667C9.86126 9.1422 9.93236 9.08182 10.0146 9.04062C10.2562 8.91979 10.6917 8.90208 11.124 8.90208H11.3646C11.8333 8.90833 11.9542 8.93854 12.124 8.98125C12.4677 9.06354 12.475 9.28542 12.4448 10.0448C12.4354 10.2604 12.426 10.5042 12.426 10.7917L12.4229 10.9917C12.4125 11.3781 12.4 11.8167 12.6729 11.9969C12.7081 12.0201 12.7495 12.0321 12.7917 12.0312C12.8865 12.0312 13.1719 12.0312 13.9448 10.7052C14.1823 10.2779 14.3894 9.83448 14.5646 9.37812C14.5802 9.35104 14.626 9.26771 14.6802 9.23542C14.7206 9.21622 14.7647 9.20592 14.8094 9.20521H16.6646C16.8667 9.20521 17.0052 9.23542 17.0312 9.31354C17.0771 9.4375 17.0229 9.81562 16.176 10.9625L15.7979 11.4615C15.0302 12.4677 15.0302 12.5187 15.8458 13.2823Z" fill="#5765AE"/>
</svg>
