<?xml version="1.0" encoding="UTF-8"?> <svg xmlns="http://www.w3.org/2000/svg" width="102" height="109" viewBox="0 0 102 109" fill="none"><path d="M3 3.08258C4.74 3.08258 5.11309 3.08259 9.5 3.08258C20.5 3.08257 19.0336 36.0959 18.3964 51.289C17 84.5826 20 78.5 34 79.5" stroke="white" stroke-dasharray="4 4"></path><path d="M31.9995 67.5272V8.02716H93.9995V92.0272H31.9995V85.5272M24.4995 67.5272V7.02716C24.5 1.02722 26.5 1.02722 31.9995 1.02716H93.9995C101 1.02719 101.5 2.02719 101.5 7.02716V101.027C101.5 106.527 101.5 108.027 93.9995 108.027H31.9995C24.4999 108.027 24.4997 105.027 24.4995 101.027V85.5272M39.5 22.5272V16.0272H46M79.5 16.0272H87V22.5272M54 99.5272H72M1 31.5272V94.5272M1 26.5272V19.5272L4.5 12.0272L8 19.5272V94.5272M1 94.5272V104.027C1 109.027 8 108.527 8 105.027V94.5272M1 94.5272H8" stroke="white" stroke-linecap="round"></path><path d="M82 73V71.5M68 73V71.5" stroke="white" stroke-linecap="round"></path><path d="M75 71V53" stroke="white" stroke-linecap="round"></path><path d="M78 60V64" stroke="white" stroke-linecap="round"></path><path d="M72 60V64" stroke="white" stroke-linecap="round"></path><path d="M65 61C65 57.2288 65 55.3432 66.1716 54.1716C67.3432 53 69.2288 53 73 53H77C80.7712 53 82.6569 53 83.8284 54.1716C85 55.3432 85 57.2288 85 61V63C85 66.7712 85 68.6569 83.8284 69.8284C82.6569 71 80.7712 71 77 71H73C69.2288 71 67.3432 71 66.1716 69.8284C65 68.6569 65 66.7712 65 63V61Z" stroke="white"></path><path d="M57 34.5C57 33.9477 57.4477 33.5 58 33.5H68C68.5523 33.5 69 33.9477 69 34.5C69 35.6046 68.1046 36.5 67 36.5H59C57.8954 36.5 57 35.6046 57 34.5Z" stroke="white"></path><path d="M57.6282 25.7658C57.8696 23.7544 57.9903 22.7487 58.572 22.0616C58.7566 21.8435 58.9714 21.653 59.2099 21.4957C59.9614 21 60.9743 21 63.0001 21C65.026 21 66.0389 21 66.7904 21.4957C67.0289 21.653 67.2437 21.8435 67.4283 22.0616C68.01 22.7487 68.1307 23.7544 68.372 25.7658L68.463 26.5234C68.7134 28.6109 68.8387 29.6546 68.2419 30.3273C67.6451 31 66.5939 31 64.4914 31H61.5088C59.4064 31 58.3552 31 57.7584 30.3273C57.1616 29.6546 57.2868 28.6109 57.5373 26.5234L57.6282 25.7658Z" stroke="white"></path><path d="M63 31V33" stroke="white"></path><path d="M63 41V39M63 39V36.5M63 39L63.4661 39.1165C64.4214 39.3554 65.1886 40.0658 65.5 41M63 39L62.5339 39.1165C61.5786 39.3554 60.8114 40.0658 60.5 41M57 35L56.1348 32.4045C56.0617 32.1852 56.0252 32.0755 55.9542 31.9225C55.8833 31.7695 55.8541 31.7215 55.7958 31.6256C55.3394 30.8752 54.7325 30.5 53 30.5M69 35L69.8652 32.4045C69.9383 32.1852 69.9748 32.0755 70.0458 31.9225C70.1167 31.7695 70.1459 31.7215 70.2042 31.6256C70.6606 30.8752 71.2675 30.5 73 30.5" stroke="white" stroke-linecap="round"></path><path d="M35.0968 73.267L48.4681 69.1879C49.5402 68.8608 50.3324 69.8382 49.7903 70.8193L43.03 83.0557C42.4175 84.1644 40.8065 84.1105 40.6352 82.9756L39.9064 78.1477C39.8497 77.7721 39.6071 77.4727 39.2514 77.3395L34.6791 75.6265C33.6044 75.2238 33.8853 73.6366 35.0968 73.267Z" stroke="white"></path></svg> 