<?xml version="1.0" encoding="UTF-8"?> <svg xmlns="http://www.w3.org/2000/svg" width="90" height="106" viewBox="0 0 90 106" fill="none"><path d="M64.1474 71.0025V78.0027M50.1474 105.503H64.1474V78.0027M50.1474 105.503V99.0026M50.1474 105.503H27.1478C25.6478 105.169 22.6477 103.803 22.6477 101.003V97.4755M50.1474 99.0026C53.6477 99.0026 54.1474 98.5026 54.1474 96.5025V91.0025C54.0846 88.8465 52.6776 88.4175 52.1474 88.5025H50.1474M50.1474 99.0026H43.1477M43.6474 84.5025C44.6399 84.4021 47.4878 84.5048 48.1474 87.0025V88.5025H50.1474M43.6474 84.5025V60.0025M43.6474 84.5025C43.3314 84.4182 39.9189 84.9083 38.1477 88.0026M43.6474 60.0025L50.1474 52.5025M43.6474 60.0025L36.1474 51.0025M50.1474 52.5025V88.5025M50.1474 52.5025L48.1474 47.0025M50.1474 52.5025C65.7476 53.7026 72.981 65.3359 74.6477 71.0025V79.5026L78.1477 50.0026M48.1474 47.0025H37.6474M48.1474 47.0025C52.9128 46.167 53.8506 44.5415 55.1477 42.5026M37.6474 47.0025L36.1474 51.0025M37.6474 47.0025C32.4427 45.8279 32.6477 44.0026 31.6477 42.0026M36.1474 51.0025C23.6477 54.5026 23.6477 59.5026 23.6477 59.5026L19.6477 46.5026M19.6477 46.5026C18.6477 36.0026 -0.87972 41.6465 1.14746 48.5025C1.19904 48.677 1.26068 48.8436 1.3318 49.0026M19.6477 46.5026C20.6989 50.0279 4.05582 55.093 1.3318 49.0026M1.3318 49.0026L15.1477 68.2504M22.1478 78.0027V63.5026M22.1478 78.0027L15.1477 68.2504M22.1478 78.0027L22.6477 85.5026L17.6477 81.5026C25.1477 88.5026 27.1477 88.0026 29.6477 88.0026C32.1477 88.0026 38.1477 88.0026 38.1477 88.0026M22.1478 63.5026C22.2835 59.4634 25.1058 59.1947 26.1478 59.0026C26.1478 59.0026 32.2741 58.9806 37.1477 58.9887M22.1478 63.5026C22.1392 65.7922 23.1328 69.5389 27.1478 69.5027C27.1478 69.5027 36.0572 69.4547 39.6478 69.5027C43.2384 69.5506 45.3068 59.0381 40.6478 59.0026C39.6647 58.9952 38.451 58.9908 37.1477 58.9887M15.1477 68.2504C6.77527 85.9821 15.2138 94.6694 22.6477 97.4755M38.1477 88.0026L38.6476 99.0026M38.6476 99.0026C38.6476 99.0026 34.6479 99.0026 27.1478 98.5026C25.8147 98.4138 24.2547 98.082 22.6477 97.4755M38.6476 99.0026L43.1477 99.0026M43.1477 99.0026C46.4159 101.795 41.5373 104.83 37.6477 105.503M37.1477 58.9887C33.1473 58.9887 33.5 66.2504 33.5 68.2504M78.1477 50.0026L74.6477 47.0025C74.6477 43.8026 74.6477 42.336 74.6477 42.0026C75.0869 39.4626 77.1477 39.5026 77.6477 39.5026V37.0026C77.6477 34.0026 80.6477 33.5026 81.1477 33.5026H85.6477C88.0477 33.5026 88.6477 35.836 88.6477 37.0026V50.0026M78.1477 50.0026H88.6477M64.1474 78.0027C66.1477 89.0027 85.1477 93.0026 88.6477 78.5026V50.0026M31.6477 42.0026V26.7526M31.6477 42.0026C26.574 42.0026 24.4394 38.9591 24.6884 36.0026M31.6477 26.7526V30.5026C27.4194 30.3434 24.9303 33.132 24.6884 36.0026M31.6477 26.7526H55.1477M55.1477 42.5026V26.7526M55.1477 42.5026C59.6411 42.0533 61.8126 39.5849 62.0704 37.0026M55.1477 26.7526V30.5026C59.8283 30.5026 62.3863 33.8381 62.0704 37.0026M24.6884 36.0026V26.7526M62.0704 37.0026L62.111 26.7526M24.6884 26.7526C22.6477 26.7526 20.6477 27.0026 20.6477 24.5026V21.0026C20.6477 19.0026 22.1477 19.0026 24.6884 19.0026M24.6884 26.7526V19.0026M24.6884 26.7526H62.111M24.6884 19.0026V17.5026C26.6237 7.16132 32.8292 2.30229 39.6477 1.23186M24.6884 19.0026H39.6477M62.1418 19.0026L62.1477 17.5026C62.3817 9.54718 55.2794 3.2342 47.1477 1.48437M62.1418 19.0026C66.1465 19.0026 66.6477 19.5026 66.6477 21.0026V24.5026C66.6477 27.0026 64.1477 26.7526 62.111 26.7526M62.1418 19.0026L62.111 26.7526M62.1418 19.0026H47.1477M39.6477 19.0026V1.23186M39.6477 19.0026H47.1477M39.6477 1.23186C42.1253 0.842904 44.6837 0.954159 47.1477 1.48437M47.1477 1.48437V19.0026" stroke="white"></path></svg> 