<?xml version="1.0" encoding="UTF-8"?> <svg xmlns="http://www.w3.org/2000/svg" width="111" height="85" viewBox="0 0 111 85" fill="none"><path d="M100.298 31.2429L109.996 84H102.304L92.6063 38.9717H86.5868M100.298 31.2429H10.3393M100.298 31.2429H105.649C111.334 31.2429 111.334 21.834 106.318 21.834H89.9309M10.3393 31.2429L1.30998 84H9.00161L18.3653 38.9717H43.7812M10.3393 31.2429H5.323C-0.309836 31.2288 -0.570691 21.8215 5.323 21.834H13.349M43.1123 84L46.4565 57.4534M46.4565 57.4534H83.9114M46.4565 57.4534C39.7681 57.4534 40.1026 48.3806 45.7877 48.3806M83.9114 57.4534L87.5901 84M83.9114 57.4534C90.9342 57.4534 92.2719 48.3806 84.5803 48.3806M45.7877 48.3806H84.5803M45.7877 48.3806L43.7812 38.9717M84.5803 48.3806L86.5868 38.9717M43.7812 38.9717H86.5868M40.4369 21.834L38.4304 10.4089C37.7616 3.35223 42.4434 1 46.4565 1H84.5803C89.5965 1 92.6063 6.04049 91.9374 10.4089L89.9309 21.834M40.4369 21.834H89.9309M40.4369 21.834H13.349M29.7355 21.834C25.0537 21.1619 26.7258 14.4413 30.0699 14.4413M30.0699 14.4413H32.4109C36.7583 14.4413 37.4272 5.70445 31.742 6.04049H14.3523C19.3685 8.05668 18.3653 12.4251 15.6899 14.4413M30.0699 14.4413H15.6899M15.6899 14.4413C9.33598 14.4413 10.6737 21.834 13.349 21.834" stroke="white"></path></svg> 