<?xml version="1.0" encoding="UTF-8"?> <svg xmlns="http://www.w3.org/2000/svg" width="413" height="141" viewBox="0 0 413 141" fill="none"><path d="M22.6364 77.1818C24.946 77.1818 26.8182 75.3096 26.8182 73C26.8182 70.6904 24.946 68.8182 22.6364 68.8182C20.3269 68.8182 18.4546 70.6904 18.4546 73C18.4546 75.3096 20.3269 77.1818 22.6364 77.1818Z" stroke="white" stroke-width="1.5" stroke-miterlimit="1.5" stroke-linecap="round" stroke-linejoin="round"></path><path d="M43.5453 77.1818C45.855 77.1818 47.7272 75.3096 47.7272 73C47.7272 70.6904 45.855 68.8182 43.5453 68.8182C41.2357 68.8182 39.3635 70.6904 39.3635 73C39.3635 75.3096 41.2357 77.1818 43.5453 77.1818Z" stroke="white" stroke-width="1.5" stroke-miterlimit="1.5" stroke-linecap="round" stroke-linejoin="round"></path><path d="M26.9227 73H37.2727V51.2545C37.2727 50.5617 36.7111 50 36.0182 50H8" stroke="white" stroke-width="1.5" stroke-linecap="round"></path><path d="M17.7228 73H13.4364C12.7436 73 12.1819 72.4384 12.1819 71.7455V61.5" stroke="white" stroke-width="1.5" stroke-linecap="round"></path><path d="M10.0908 56.2727H18.4545" stroke="white" stroke-width="1.5" stroke-linecap="round" stroke-linejoin="round"></path><path d="M37.2727 56.2727H49.0029C49.4987 56.2727 49.948 56.5647 50.1494 57.0177L53.8919 65.4384C53.9632 65.599 54 65.7725 54 65.948V71.7454C54 72.4384 53.4384 73 52.7454 73H48.7727" stroke="white" stroke-width="1.5" stroke-linecap="round"></path><path d="M37.2727 73H39.3636" stroke="white" stroke-width="1.5" stroke-linecap="round"></path><path d="M68 40C84.5 40 127.9 40 169.5 40C203.5 40 211.264 63.5211 214 77.2227C220.007 107.299 298.102 98.3478 343 101" stroke="white" stroke-dasharray="9 9"></path><rect x="0.5" y="0.5" width="60" height="79" rx="9.5" stroke="white"></rect><rect x="352.5" y="61.5" width="60" height="79" rx="9.5" stroke="white"></rect><path d="M405.099 115.245H362V120.066H405.099V115.245Z" stroke="white" stroke-miterlimit="2" stroke-linecap="round" stroke-linejoin="round"></path><path fill-rule="evenodd" clip-rule="evenodd" d="M362 137.026V120.066H364.374V137.026H362Z" stroke="white" stroke-miterlimit="2" stroke-linecap="round" stroke-linejoin="round"></path><path fill-rule="evenodd" clip-rule="evenodd" d="M385.389 137.026V120.066H405.097V137.026H385.389Z" stroke="white" stroke-miterlimit="2" stroke-linecap="round" stroke-linejoin="round"></path><path fill-rule="evenodd" clip-rule="evenodd" d="M385.389 133.171V130.803H405.097V133.171H385.389Z" stroke="white" stroke-miterlimit="2" stroke-linecap="round" stroke-linejoin="round"></path><path fill-rule="evenodd" clip-rule="evenodd" d="M385.389 127.691V123.024L386.945 123.872V126.843L385.389 127.691Z" stroke="white" stroke-miterlimit="2" stroke-linecap="round" stroke-linejoin="round"></path><path d="M390.992 113.689H376.107V115.245H390.992V113.689Z" stroke="white" stroke-miterlimit="2" stroke-linecap="round" stroke-linejoin="round"></path><path d="M385.881 112.133H381.214V113.689H385.881V112.133Z" stroke="white" stroke-miterlimit="2" stroke-linecap="round" stroke-linejoin="round"></path><path d="M396.384 99H370.713V112.133H396.384V99Z" stroke="white" stroke-miterlimit="2" stroke-linecap="round" stroke-linejoin="round"></path><path d="M381.993 100.424H385.105" stroke="white" stroke-miterlimit="2" stroke-linecap="round" stroke-linejoin="round"></path></svg> 