<svg xmlns="http://www.w3.org/2000/svg" width="90" height="106" fill="none"><path d="M64.147 71.002v7m-14 27.501h14v-27.5m-14 27.5v-6.5m0 6.5h-23c-1.5-.334-4.5-1.7-4.5-4.5v-3.528m27.5 1.528c3.5 0 4-.5 4-2.5v-5.5c-.062-2.156-1.47-2.585-2-2.5h-2m0 10.5h-7m.5-14.5c.993-.1 3.84.002 4.5 2.5v1.5h2m-6.5-4v-24.5m0 24.5c-.316-.085-3.728.405-5.5 3.5m5.5-28 6.5-7.5m-6.5 7.5-7.5-9m14 1.5v36m0-36-2-5.5m2 5.5c15.6 1.2 22.834 12.833 24.5 18.5v8.5l3.5-29.5m-30-3h-10.5m10.5 0c4.766-.836 5.704-2.462 7-4.5m-17.5 4.5-1.5 4m1.5-4c-5.204-1.175-5-3-6-5m4.5 9c-12.5 3.5-12.5 8.5-12.5 8.5l-4-13m0 0c-1-10.5-20.527-4.856-18.5 2a4 4 0 0 0 .185.5m18.316-2.5c1.05 3.525-15.592 8.59-18.316 2.5m0 0L15.148 68.25m7 9.753v-14.5m0 14.5-7-9.753m7 9.753.5 7.5-5-4c7.5 7 9.5 6.5 12 6.5h8.5m-16-24.5c.136-4.04 2.958-4.308 4-4.5 0 0 6.126-.022 11-.014m-15 4.514c-.009 2.29.985 6.036 5 6 0 0 8.91-.048 12.5 0s5.659-10.465 1-10.5c-.983-.008-2.197-.012-3.5-.014m-22 9.261c-8.373 17.732.066 26.42 7.5 29.225m15.5-9.472.5 11m0 0s-4 0-11.5-.5c-1.333-.09-2.893-.421-4.5-1.028m16 1.528h4.5m0 0c3.268 2.792-1.61 5.827-5.5 6.5m-.5-46.514c-4 0-3.648 7.261-3.648 9.261m44.648-18.247-3.5-3v-5c.439-2.54 2.5-2.5 3-2.5v-2.5c0-3 3-3.5 3.5-3.5h4.5c2.4 0 3 2.333 3 3.5v13m-10.5 0h10.5m-24.5 28c2 11 21 15 24.5.5v-28.5m-57-8v-15.25m0 15.25c-5.074 0-7.209-3.044-6.96-6m6.96-9.25v3.75c-4.229-.16-6.718 2.629-6.96 5.5m6.96-9.25h23.5m0 15.75v-15.75m0 15.75c4.493-.45 6.665-2.918 6.922-5.5m-6.922-10.25v3.75c4.68 0 7.238 3.335 6.922 6.5m-37.382-1v-9.25m37.382 10.25.041-10.25m-37.423 0c-2.04 0-4.04.25-4.04-2.25v-3.5c0-2 1.5-2 4.04-2m0 7.75v-7.75m0 7.75h37.423m-37.423-7.75v-1.5c1.936-10.342 8.141-15.2 14.96-16.271m-14.96 17.77h14.96m22.494 0 .006-1.5c.234-7.955-6.869-14.268-15-16.018m14.994 17.519c4.005 0 4.506.5 4.506 2v3.5c0 2.5-2.5 2.25-4.537 2.25m.03-7.75-.03 7.75m.03-7.75H47.149m-7.5 0V1.232m0 17.77h7.5m-7.5-17.77c2.477-.39 5.036-.278 7.5.252m0 0v17.519" stroke="#fff"/></svg>