<svg xmlns="http://www.w3.org/2000/svg" width="111" height="85" fill="none"><path d="M100.298 31.243 109.996 84h-7.692l-9.698-45.028h-6.02m13.712-7.73H10.339m89.959 0h5.351c5.685 0 5.685-9.408.669-9.408H89.931m-79.592 9.409L1.31 84h7.692l9.363-45.028h25.416m-33.442-7.73H5.323c-5.633-.013-5.894-9.42 0-9.408h8.026M43.112 84l3.344-26.547m0 0h37.455m-37.455 0c-6.688 0-6.353-9.072-.668-9.072m38.123 9.072L87.591 84m-3.68-26.547c7.023 0 8.36-9.072.67-9.072m-38.793 0H84.58m-38.792 0-2.007-9.41m40.8 9.41 2.006-9.41m-42.806 0h42.806m-46.15-17.137L38.43 10.409C37.762 3.352 42.443 1 46.456 1H84.58c5.017 0 8.026 5.04 7.357 9.409l-2.006 11.425m-49.494 0H89.93m-49.494 0H13.349m16.386 0c-4.681-.672-3.01-7.393.335-7.393m0 0h2.34c4.348 0 5.017-8.737-.668-8.4h-17.39c5.017 2.016 4.013 6.384 1.338 8.4m14.38 0H15.69m0 0c-6.354 0-5.016 7.393-2.341 7.393" stroke="#fff"/></svg>