<svg xmlns="http://www.w3.org/2000/svg" width="102" height="109" fill="none"><path d="M3 3.083h6.5c11 0 9.534 33.013 8.896 48.206C17 84.583 20 78.5 34 79.5" stroke="#fff" stroke-dasharray="4 4"/><path d="M32 67.527v-59.5h62v84H32v-6.5m-7.5-18v-60.5c0-6 2-6 7.5-6h62c7 0 7.5 1 7.5 6v94c0 5.5 0 7-7.5 7H32c-7.5 0-7.5-3-7.5-7v-15.5m15-63v-6.5H46m33.5 0H87v6.5m-33 77h18m-71-68v63m0-68v-7l3.5-7.5 3.5 7.5v75m-7 0v9.5c0 5 7 4.5 7 1v-10.5m-7 0h7M82 73v-1.5M68 73v-1.5m7-.5V53m3 7v4m-6-4v4" stroke="#fff" stroke-linecap="round"/><path d="M65 61c0-3.771 0-5.657 1.172-6.828C67.343 53 69.229 53 73 53h4c3.771 0 5.657 0 6.828 1.172C85 55.343 85 57.229 85 61v2c0 3.771 0 5.657-1.172 6.828C82.657 71 80.771 71 77 71h-4c-3.771 0-5.657 0-6.828-1.172C65 68.657 65 66.771 65 63v-2Zm-8-26.5a1 1 0 0 1 1-1h10a1 1 0 0 1 1 1 2 2 0 0 1-2 2h-8a2 2 0 0 1-2-2Zm.628-8.734c.242-2.012.362-3.017.944-3.704.185-.219.4-.409.638-.566C59.96 21 60.974 21 63 21s3.039 0 3.79.496c.239.157.454.348.638.566.582.687.703 1.692.944 3.704l.091.757c.25 2.088.376 3.132-.221 3.804-.597.673-1.648.673-3.75.673h-2.983c-2.103 0-3.154 0-3.75-.673-.597-.672-.472-1.716-.222-3.804l.091-.757ZM63 31v2" stroke="#fff"/><path d="M63 41v-2m0 0v-2.5m0 2.5.466.117A2.88 2.88 0 0 1 65.5 41M63 39l-.466.117A2.88 2.88 0 0 0 60.5 41M57 35l-.865-2.596a4.319 4.319 0 0 0-.18-.482c-.072-.152-.1-.2-.16-.296-.456-.75-1.063-1.126-2.795-1.126M69 35l.865-2.596c.073-.219.11-.329.18-.482.072-.152.1-.2.16-.296.456-.75 1.063-1.126 2.795-1.126" stroke="#fff" stroke-linecap="round"/><path d="m35.097 73.267 13.371-4.08c1.072-.326 1.864.651 1.322 1.632l-6.76 12.237c-.613 1.108-2.224 1.055-2.395-.08l-.729-4.828a1.01 1.01 0 0 0-.655-.808l-4.572-1.714c-1.075-.402-.794-1.99.418-2.359Z" stroke="#fff"/></svg>