<svg xmlns="http://www.w3.org/2000/svg" width="413" height="141" fill="none"><path d="M22.636 77.182a4.182 4.182 0 1 0 0-8.364 4.182 4.182 0 0 0 0 8.364Zm20.909 0a4.182 4.182 0 1 0 0-8.364 4.182 4.182 0 0 0 0 8.364Z" stroke="#fff" stroke-width="1.5" stroke-miterlimit="1.5" stroke-linecap="round" stroke-linejoin="round"/><path d="M26.923 73h10.35V51.255c0-.693-.562-1.255-1.255-1.255H8m9.723 23h-4.287a1.254 1.254 0 0 1-1.254-1.254V61.5" stroke="#fff" stroke-width="1.5" stroke-linecap="round"/><path d="M10.09 56.273h8.364" stroke="#fff" stroke-width="1.5" stroke-linecap="round" stroke-linejoin="round"/><path d="M37.273 56.273h11.73c.496 0 .945.292 1.146.745l3.743 8.42c.071.161.108.334.108.51v5.797c0 .693-.562 1.255-1.255 1.255h-3.972m-11.5 0h2.09" stroke="#fff" stroke-width="1.5" stroke-linecap="round"/><path d="M68 40h101.5c34 0 41.764 23.521 44.5 37.223 6.007 30.076 84.102 21.125 129 23.777" stroke="#fff" stroke-dasharray="9 9"/><rect x=".5" y=".5" width="60" height="79" rx="9.5" stroke="#fff"/><rect x="352.5" y="61.5" width="60" height="79" rx="9.5" stroke="#fff"/><path d="M405.099 115.245H362v4.821h43.099v-4.821Z" stroke="#fff" stroke-miterlimit="2" stroke-linecap="round" stroke-linejoin="round"/><path clip-rule="evenodd" d="M362 137.026v-16.96h2.374v16.96H362Zm23.389 0v-16.96h19.708v16.96h-19.708Z" stroke="#fff" stroke-miterlimit="2" stroke-linecap="round" stroke-linejoin="round"/><path clip-rule="evenodd" d="M385.389 133.171v-2.368h19.708v2.368h-19.708Zm0-5.48v-4.667l1.556.848v2.971l-1.556.848Z" stroke="#fff" stroke-miterlimit="2" stroke-linecap="round" stroke-linejoin="round"/><path d="M390.992 113.689h-14.885v1.556h14.885v-1.556Zm-5.111-1.556h-4.667v1.556h4.667v-1.556ZM396.384 99h-25.671v13.133h25.671V99Zm-14.391 1.424h3.112" stroke="#fff" stroke-miterlimit="2" stroke-linecap="round" stroke-linejoin="round"/></svg>