<?xml version="1.0" encoding="UTF-8"?> <svg xmlns="http://www.w3.org/2000/svg" width="22" height="22" viewBox="0 0 22 22" fill="none"><path d="M11 21C16.5228 21 21 16.5228 21 11C21 5.47715 16.5228 1 11 1C5.47715 1 1 5.47715 1 11C1 16.5228 5.47715 21 11 21Z" stroke="#5765AE"></path><path d="M12 7.07141L15.2215 9.3725C16.3382 10.1702 16.3382 11.8298 15.2215 12.6274L12 14.9286M6.5 14.0568V7.94317C6.5 7.1298 7.41937 6.65667 8.08124 7.12944L12.3608 10.1862C12.9191 10.5851 12.9191 11.4149 12.3608 11.8137L8.08124 14.8705C7.41937 15.3433 6.5 14.8702 6.5 14.0568Z" stroke="#5765AE" stroke-linecap="round"></path></svg> 