<?xml version="1.0" encoding="UTF-8"?> <svg xmlns="http://www.w3.org/2000/svg" width="387" height="331" viewBox="0 0 387 331" fill="none"><path d="M91.8281 331C90.2368 331 88.7107 330.367 87.5855 329.242C86.4603 328.117 85.8281 326.591 85.8281 325V63.2695C85.8281 61.6782 86.4603 60.1521 87.5855 59.0269C88.7107 57.9017 90.2368 57.2695 91.8281 57.2695C93.4194 57.2695 94.9456 57.9017 96.0708 59.0269C97.196 60.1521 97.8281 61.6782 97.8281 63.2695V325C97.8281 326.591 97.196 328.117 96.0708 329.242C94.9456 330.367 93.4194 331 91.8281 331Z" fill="#828DC3"></path><path d="M358.89 331H28C20.5739 331 13.452 328.05 8.20101 322.799C2.94999 317.548 0 310.426 0 303V28C0 20.5739 2.94999 13.452 8.20101 8.20101C13.452 2.94999 20.5739 0 28 0H358.89C366.316 0 373.438 2.94999 378.689 8.20101C383.94 13.452 386.89 20.5739 386.89 28V303C386.89 310.426 383.94 317.548 378.689 322.799C373.438 328.05 366.316 331 358.89 331ZM28 12.08C23.7565 12.08 19.6869 13.7657 16.6863 16.7663C13.6857 19.7669 12 23.8365 12 28.08V303.08C12 307.323 13.6857 311.393 16.6863 314.394C19.6869 317.394 23.7565 319.08 28 319.08H358.89C363.133 319.08 367.203 317.394 370.204 314.394C373.204 311.393 374.89 307.323 374.89 303.08V28.08C374.89 23.8365 373.204 19.7669 370.204 16.7663C367.203 13.7657 363.133 12.08 358.89 12.08H28Z" fill="#828DC3"></path><path d="M380.889 69.2695H6.03906C4.44776 69.2695 2.92164 68.6374 1.79642 67.5122C0.671199 66.387 0.0390625 64.8608 0.0390625 63.2695C0.0390625 61.6782 0.671199 60.1521 1.79642 59.0269C2.92164 57.9017 4.44776 57.2695 6.03906 57.2695H380.889C382.48 57.2695 384.006 57.9017 385.132 59.0269C386.257 60.1521 386.889 61.6782 386.889 63.2695C386.889 64.8608 386.257 66.387 385.132 67.5122C384.006 68.6374 382.48 69.2695 380.889 69.2695Z" fill="#828DC3"></path><path d="M193.441 331C191.85 331 190.324 330.367 189.199 329.242C188.074 328.117 187.441 326.591 187.441 325V63.2695C187.441 61.6782 188.074 60.1521 189.199 59.0269C190.324 57.9017 191.85 57.2695 193.441 57.2695C195.033 57.2695 196.559 57.9017 197.684 59.0269C198.809 60.1521 199.441 61.6782 199.441 63.2695V325C199.441 326.591 198.809 328.117 197.684 329.242C196.559 330.367 195.033 331 193.441 331Z" fill="#828DC3"></path><path d="M295.059 331C293.467 331 291.941 330.367 290.816 329.242C289.691 328.117 289.059 326.591 289.059 325V63.2695C289.059 61.6782 289.691 60.1521 290.816 59.0269C291.941 57.9017 293.467 57.2695 295.059 57.2695C296.65 57.2695 298.176 57.9017 299.301 59.0269C300.426 60.1521 301.059 61.6782 301.059 63.2695V325C301.059 326.591 300.426 328.117 299.301 329.242C298.176 330.367 296.65 331 295.059 331Z" fill="#828DC3"></path><path d="M380.889 141.789H6.03906C4.44776 141.789 2.92164 141.157 1.79642 140.032C0.671199 138.906 0.0390625 137.38 0.0390625 135.789C0.0390625 134.198 0.671199 132.672 1.79642 131.546C2.92164 130.421 4.44776 129.789 6.03906 129.789H380.889C382.48 129.789 384.006 130.421 385.132 131.546C386.257 132.672 386.889 134.198 386.889 135.789C386.889 137.38 386.257 138.906 385.132 140.032C384.006 141.157 382.48 141.789 380.889 141.789Z" fill="#828DC3"></path><path d="M380.889 249.02H6.03906C4.44776 249.02 2.92164 248.387 1.79642 247.262C0.671199 246.137 0.0390625 244.611 0.0390625 243.02C0.0390625 241.428 0.671199 239.902 1.79642 238.777C2.92164 237.652 4.44776 237.02 6.03906 237.02H380.889C382.48 237.02 384.006 237.652 385.132 238.777C386.257 239.902 386.889 241.428 386.889 243.02C386.889 244.611 386.257 246.137 385.132 247.262C384.006 248.387 382.48 249.02 380.889 249.02Z" fill="#828DC3"></path></svg> 