<?xml version="1.0" encoding="UTF-8"?> <svg xmlns="http://www.w3.org/2000/svg" width="35" height="34" viewBox="0 0 35 34" fill="none"><path d="M13.6978 4.46783L14.9553 6.64832C16.0901 8.6161 15.6346 11.1975 13.8472 12.9272C13.8472 12.9272 11.6795 15.0253 15.61 18.8291C19.5392 22.6316 21.7086 20.535 21.7086 20.535C23.496 18.8053 26.1633 18.3645 28.1967 19.4627L30.4498 20.6795C33.5204 22.3378 33.8829 26.5048 31.1842 29.1167C29.5625 30.6861 27.5758 31.9073 25.3796 31.9877C21.6827 32.1234 15.4042 31.218 9.10617 25.1231C2.80819 19.0282 1.87254 12.9523 2.01269 9.37456C2.09595 7.24926 3.3578 5.32669 4.97951 3.75731C7.67835 1.14552 11.9843 1.49645 13.6978 4.46783Z" stroke="#F4F2FA" stroke-width="4" stroke-linecap="round"></path></svg> 