<?xml version="1.0" encoding="UTF-8"?> <svg xmlns="http://www.w3.org/2000/svg" width="203" height="178" viewBox="0 0 203 178" fill="none"><path d="M203 147.136C203 164.049 189.296 177.756 172.389 177.756H30.6111C13.7041 177.756 0 164.049 0 147.136V31.1003C0 14.19 13.7041 0.479492 30.6111 0.479492H172.389C189.296 0.479492 203 14.19 203 31.1003V147.136ZM193.333 31.1003C193.333 19.5293 183.957 10.1494 172.389 10.1494H30.6111C19.0433 10.1494 9.66667 19.5293 9.66667 31.1003V147.136C9.66667 158.707 19.0433 168.087 30.6111 168.087H172.389C183.957 168.087 193.333 158.707 193.333 147.136V31.1003Z" fill="#F4F2FA"></path><path d="M67.6667 147.136C67.6667 164.049 53.9626 177.756 37.0556 177.756H30.6111C13.7041 177.756 0 164.049 0 147.136V31.1003C0 14.19 13.7041 0.479492 30.6111 0.479492H37.0556C53.9626 0.479492 67.6667 14.19 67.6667 31.1003V147.136ZM58 31.1003C58 19.5293 48.6233 10.1494 37.0556 10.1494H30.6111C19.0433 10.1494 9.66667 19.5293 9.66667 31.1003V147.136C9.66667 158.707 19.0433 168.087 30.6111 168.087H37.0556C48.6233 168.087 58 158.707 58 147.136V31.1003Z" fill="#F4F2FA"></path><path d="M174.001 63.329C174.001 66.0002 171.836 68.1656 169.168 68.1656H101.501C98.8333 68.1656 96.668 66.0002 96.668 63.329V24.6559C96.668 21.9847 98.8333 19.8193 101.501 19.8193H169.168C171.836 19.8193 174.001 21.9847 174.001 24.6559V63.329ZM106.335 58.4957H164.335V29.486H106.335V58.4957Z" fill="#F4F2FA"></path><path d="M174.001 150.36C174.001 153.032 171.836 155.194 169.168 155.194H101.501C98.8333 155.194 96.668 153.032 96.668 150.36V82.6712C96.668 80 98.8333 77.8379 101.501 77.8379H169.168C171.836 77.8379 174.001 80 174.001 82.6712V150.36ZM106.335 145.524H164.335V87.5046H106.335V145.524Z" fill="#F4F2FA"></path><path d="M146.611 150.361C143.943 150.361 141.777 148.195 141.777 145.524V84.2826C141.777 81.6146 143.943 79.4492 146.611 79.4492C149.279 79.4492 151.444 81.6146 151.444 84.2826V145.524C151.444 148.192 149.279 150.361 146.611 150.361Z" fill="#F4F2FA"></path><path d="M124.056 150.361C121.388 150.361 119.223 148.195 119.223 145.524V84.2826C119.223 81.6146 121.388 79.4492 124.056 79.4492C126.724 79.4492 128.889 81.6146 128.889 84.2826V145.524C128.889 148.192 126.724 150.361 124.056 150.361Z" fill="#F4F2FA"></path><path d="M166.176 110.067H101.732C99.0638 110.067 96.8984 107.902 96.8984 105.231C96.8984 102.563 99.0638 100.397 101.732 100.397H166.176C168.844 100.397 171.01 102.563 171.01 105.231C171.01 107.905 168.844 110.067 166.176 110.067Z" fill="#F4F2FA"></path><path d="M166.176 132.632H101.732C99.0638 132.632 96.8984 130.466 96.8984 127.798C96.8984 125.127 99.0638 122.962 101.732 122.962H166.176C168.844 122.962 171.01 125.127 171.01 127.798C171.01 130.466 168.844 132.632 166.176 132.632Z" fill="#F4F2FA"></path></svg> 