<?xml version="1.0" encoding="UTF-8"?> <svg xmlns="http://www.w3.org/2000/svg" width="49" height="49" viewBox="0 0 49 49" fill="none"><path d="M8.75 16.6579C8.75 8.56257 15.8015 2 24.5 2C33.1985 2 40.25 8.56257 40.25 16.6579C40.25 24.6899 35.223 34.0623 27.3802 37.4141C25.5519 38.1953 23.4481 38.1953 21.6198 37.4141C13.7769 34.0623 8.75 24.6899 8.75 16.6579Z" stroke="#F4F2FA" stroke-width="4"></path><path d="M29 17.75C29 20.2353 26.9853 22.25 24.5 22.25C22.0147 22.25 20 20.2353 20 17.75C20 15.2647 22.0147 13.25 24.5 13.25C26.9853 13.25 29 15.2647 29 17.75Z" stroke="#F4F2FA" stroke-width="4"></path><path d="M44.6611 32.375C46.1583 33.7306 47 35.2586 47 36.875C47 42.4669 36.9263 47 24.5 47C12.0736 47 2 42.4669 2 36.875C2 35.2586 2.84177 33.7306 4.33881 32.375" stroke="#F4F2FA" stroke-width="4" stroke-linecap="round"></path></svg> 