<?xml version="1.0" encoding="UTF-8"?> <svg xmlns="http://www.w3.org/2000/svg" width="44" height="36" viewBox="0 0 44 36" fill="none"><path d="M2 18C2 10.4575 2 6.6863 4.34314 4.34314C6.6863 2 10.4575 2 18 2H26C33.5424 2 37.3138 2 39.6568 4.34314C42 6.6863 42 10.4575 42 18C42 25.5424 42 29.3138 39.6568 31.6568C37.3138 34 33.5424 34 26 34H18C10.4575 34 6.6863 34 4.34314 31.6568C2 29.3138 2 25.5424 2 18Z" stroke="#F4F2FA" stroke-width="4"></path><path d="M10 10L14.3178 13.5982C17.9911 16.6592 19.8278 18.1898 22 18.1898C24.1722 18.1898 26.009 16.6592 29.6822 13.5982L34 10" stroke="#F4F2FA" stroke-width="4" stroke-linecap="round"></path></svg> 