<svg xmlns="http://www.w3.org/2000/svg" width="35" height="34" fill="none"><path d="m13.698 4.468 1.257 2.18c1.135 1.968.68 4.55-1.108 6.28 0 0-2.167 2.097 1.763 5.901 3.93 3.803 6.099 1.706 6.099 1.706 1.787-1.73 4.454-2.17 6.488-1.072l2.253 1.216c3.07 1.659 3.433 5.826.734 8.438-1.622 1.57-3.608 2.79-5.804 2.87-3.697.136-9.976-.769-16.274-6.864S1.873 12.953 2.013 9.375c.083-2.126 1.345-4.048 2.967-5.618 2.698-2.611 7.004-2.26 8.718.71Z" stroke="#F4F2FA" stroke-width="4" stroke-linecap="round"/></svg>